<?xml version="1.0" encoding="utf-8"?>
<!-- Generator: Adobe Illustrator 17.0.2, SVG Export Plug-In . SVG Version: 6.00 Build 0)  -->
<!DOCTYPE svg PUBLIC "-//W3C//DTD SVG 1.1//EN" "http://www.w3.org/Graphics/SVG/1.1/DTD/svg11.dtd">
<svg version="1.1" id="Layer_1" xmlns="http://www.w3.org/2000/svg" xmlns:xlink="http://www.w3.org/1999/xlink" x="0px" y="0px"
	 width="42px" height="8.71px" viewBox="0 0 42 8.71" enable-background="new 0 0 42 8.71" xml:space="preserve">
<path fill="#8DE80A" d="M22.166,0.821c3.969-1.984,6.652,0.7,6.652,0.7c4.087,5.136,8.869-0.116,10.737-1.283
	c1.867-1.167,1.052,2.333,1.052,2.333c-3.503,10.269-18.79,4.551-18.79,4.551s-0.819-0.465-1.635,0c0,0-15.288,5.718-18.79-4.551
	c0,0-0.816-3.5,1.052-2.333c1.866,1.167,6.651,6.419,10.735,1.283c0,0,2.685-2.684,6.652-0.7C19.833,0.821,20.65,1.873,22.166,0.821
	z"/>
</svg>
