<?xml version="1.0" encoding="utf-8"?>
<!-- Generator: Adobe Illustrator 17.0.2, SVG Export Plug-In . SVG Version: 6.00 Build 0)  -->
<!DOCTYPE svg PUBLIC "-//W3C//DTD SVG 1.1//EN" "http://www.w3.org/Graphics/SVG/1.1/DTD/svg11.dtd">
<svg version="1.1" id="Layer_1" xmlns="http://www.w3.org/2000/svg" xmlns:xlink="http://www.w3.org/1999/xlink" x="0px" y="0px"
	 width="13px" height="17px" viewBox="0 0 13 17" enable-background="new 0 0 13 17" xml:space="preserve">
<g opacity="0.4">
	<g>
		<path fill="#FFFFFF" d="M12.681,6.611c0,3.652-2.857,6.612-6.381,6.612c-3.525,0-6.382-2.96-6.382-6.612
			C-0.083,2.96,2.775,0,6.3,0C9.824,0,12.681,2.96,12.681,6.611z M1.575,5.964c0,1.91,1.144,3.544,2.761,4.208
			C3.485,9.345,2.953,8.172,2.953,6.869c0-2.5,1.956-4.526,4.368-4.526c0.569,0,1.11,0.113,1.608,0.317
			c-0.781-0.757-1.83-1.223-2.985-1.223C3.53,1.438,1.575,3.464,1.575,5.964z"/>
		<g>
			<path fill="#FFFFFF" d="M6.242,15.166c-2.552,0-4.232-1.285-4.302-1.34c-0.322-0.25-0.38-0.716-0.129-1.038
				c0.251-0.322,0.714-0.381,1.036-0.131c0.027,0.02,1.382,1.03,3.396,1.03c2.062,0,3.413-0.794,3.778-1.037
				c0.34-0.227,0.799-0.135,1.027,0.204c0.227,0.34,0.135,0.799-0.205,1.027C10.261,14.268,8.653,15.166,6.242,15.166L6.242,15.166z
				"/>
		</g>
		<g>
			<path fill="#FFFFFF" d="M6.209,17c-2.992,0-4.959-1.479-5.042-1.541c-0.324-0.249-0.386-0.713-0.137-1.038
				c0.248-0.324,0.711-0.385,1.036-0.139c0.032,0.024,1.685,1.238,4.143,1.238c2.504,0,4.148-0.95,4.593-1.241
				c0.342-0.224,0.801-0.128,1.024,0.214c0.224,0.342,0.129,0.8-0.213,1.024C10.932,15.963,9.042,17,6.209,17L6.209,17z"/>
		</g>
	</g>
</g>
</svg>
