<?xml version="1.0" encoding="utf-8"?>
<!-- Generator: Adobe Illustrator 17.0.2, SVG Export Plug-In . SVG Version: 6.00 Build 0)  -->
<!DOCTYPE svg PUBLIC "-//W3C//DTD SVG 1.1//EN" "http://www.w3.org/Graphics/SVG/1.1/DTD/svg11.dtd">
<svg version="1.1" id="Layer_1" xmlns="http://www.w3.org/2000/svg" xmlns:xlink="http://www.w3.org/1999/xlink" x="0px" y="0px"
	 width="20px" height="20px" viewBox="0 0 20 20" enable-background="new 0 0 20 20" xml:space="preserve">
<g opacity="0.2">
	<path d="M18.537,2.403l-0.912-0.912c-1.512-1.511-3.962-1.511-5.474,0L9.446,4.198c1.105-0.45,2.365-0.364,3.422,0.226l1.107-1.107
		c0.504-0.505,1.322-0.505,1.826,0l0.911,0.911c0.503,0.504,0.503,1.321-0.001,1.825l-5.473,5.472c-0.504,0.503-1.319,0.503-1.823,0
		L8.66,10.767l-1.88,1.77l0.812,0.81c1.512,1.513,3.962,1.513,5.472,0l5.474-5.473C20.048,6.365,20.048,3.915,18.537,2.403z"/>
	<path d="M7.133,15.577l-1.107,1.107c-0.504,0.503-1.321,0.503-1.825,0l-0.912-0.913c-0.504-0.501-0.504-1.319,0-1.824l5.473-5.471
		c0.504-0.506,1.321-0.506,1.824,0l0.758,0.757l1.879-1.769L12.41,6.651c-1.511-1.511-3.962-1.511-5.474,0l-5.473,5.472
		c-1.512,1.513-1.512,3.963,0,5.473l0.912,0.912c1.512,1.513,3.962,1.513,5.473,0.002l2.708-2.708
		C9.451,16.253,8.188,16.166,7.133,15.577z"/>
</g>
</svg>
