<?xml version="1.0" encoding="utf-8"?>
<!-- Generator: Adobe Illustrator 17.0.2, SVG Export Plug-In . SVG Version: 6.00 Build 0)  -->
<!DOCTYPE svg PUBLIC "-//W3C//DTD SVG 1.1//EN" "http://www.w3.org/Graphics/SVG/1.1/DTD/svg11.dtd">
<svg version="1.1" id="Layer_1" xmlns="http://www.w3.org/2000/svg" xmlns:xlink="http://www.w3.org/1999/xlink" x="0px" y="0px"
	 width="78px" height="24px" viewBox="0 0 78 24" enable-background="new 0 0 78 24" xml:space="preserve">
<g>
	<path fill="#FFFFFF" d="M2,16.31V24H0V12.033c0-3.46,3.036-6.205,6.496-6.205c3.485,0,6.388,2.744,6.388,6.18
		c0,3.51-2.958,6.229-6.295,6.229C4.785,18.238,3,17.496,2,16.31z M2.289,12.033c0,2.521,2.052,4.548,4.548,4.548
		c2.521,0,4.548-2.027,4.548-4.548c0-2.497-2.027-4.548-4.548-4.548C4.341,7.485,2.289,9.537,2.289,12.033z"/>
	<path fill="#FFFFFF" d="M15,6h1v1.93c1-1.211,3-1.953,5-1.953v1.656c-3,0-5,1.928-5,4.326V18h-1V6z"/>
	<path fill="#FFFFFF" d="M34.126,12.132c0,3.436-2.744,6.18-6.23,6.18c-3.46,0-6.18-2.744-6.18-6.18c0-3.486,2.67-6.23,6.18-6.23
		C31.234,5.903,34.126,8.622,34.126,12.132z M32.47,12.107c0-2.521-2.027-4.548-4.548-4.548c-2.497,0-4.548,2.027-4.548,4.548
		c0,2.497,2.052,4.548,4.548,4.548C30.443,16.656,32.47,14.604,32.47,12.107z"/>
	<path fill="#ABE638" d="M36,0h1v7.732c1-1.187,2.818-1.928,4.647-1.928c3.337,0,6.353,2.719,6.353,6.229V18h-2v-5.967
		c0-2.522-2.003-4.573-4.5-4.573c-2.472,0-4.5,1.953-4.5,4.4V18h-1V0z"/>
	<path fill="#ABE638" d="M63,18h-2v-1.517c-1,1.186-2.843,1.928-4.647,1.928c-3.337,0-6.353-2.719-6.353-6.229V6h2v6.182
		c0,2.522,2.003,4.573,4.5,4.573c2.521,0,4.5-2.052,4.5-4.573V6h2V18z"/>
	<path fill="#ABE638" d="M77.604,12.132c0,3.436-2.841,6.18-6.327,6.18c-3.46,0-6.277-2.744-6.277-6.18v-0.025V0h1v7.831
		c2-1.187,3.12-1.928,4.949-1.928C74.286,5.903,77.604,8.622,77.604,12.132z M75.948,12.107c0-2.521-2.027-4.548-4.548-4.548
		c-2.497,0-4.548,2.027-4.548,4.548c0,2.497,2.052,4.548,4.548,4.548C73.921,16.656,75.948,14.604,75.948,12.107z"/>
</g>
</svg>
