<?xml version="1.0" encoding="UTF-8" standalone="no"?>
<svg width="12px" height="16px" viewBox="0 0 12 16" version="1.1" xmlns="http://www.w3.org/2000/svg" xmlns:xlink="http://www.w3.org/1999/xlink" xmlns:sketch="http://www.bohemiancoding.com/sketch/ns">
    <title>fork-me-icon</title>
    <description>Created with Sketch (http://www.bohemiancoding.com/sketch)</description>
    <defs></defs>
    <g id="Page-1" stroke="none" stroke-width="1" fill="none" fill-rule="evenodd" sketch:type="MSPage">
        <g id="fork-me-icon" sketch:type="MSArtboardGroup" fill="#FFFFFF">
            <path d="M1.12472527,12 L1.09090909,12 L1.09090909,5.06666667 L1.12472527,5.06666667 L1.12472527,5.06666667 C0.45397504,4.70273896 0,4.00320716 0,3.2 C0,2.02179248 0.976833213,1.06666667 2.18181818,1.06666667 C3.38680315,1.06666667 4.36363636,2.02179248 4.36363636,3.2 C4.36363636,4.00320716 3.90966132,4.70273897 3.23891109,5.06666667 L3.27272727,5.06666667 L3.27272727,10.0994535 C3.83433096,9.78180265 4.48636089,9.6 5.18181818,9.6 L5.18181818,11.7333333 C4.61089228,11.7333333 4.10825665,12.0192211 3.81548051,12.4525733 C4.15655974,12.8290137 4.36363636,13.3241949 4.36363636,13.8666667 C4.36363636,15.0448742 3.38680315,16 2.18181818,16 C0.976833213,16 0,15.0448742 0,13.8666667 C0,13.0634595 0.45397504,12.3639277 1.12472527,12 L1.12472527,12 Z M7.63636364,2.13333333 L7.63636364,0 L9.81818182,0 L9.81818182,2.13333333 L12,2.13333333 L12,4.26666667 L9.81818182,4.26666667 L9.81818182,6.4 L7.63636364,6.4 L7.63636364,4.26666667 L5.45454545,4.26666667 L5.45454545,2.13333333 L7.63636364,2.13333333 L7.63636364,2.13333333 Z M5.18181818,11.7333333 L6,11.7333333 L6,9.6 L5.18181818,9.6 L5.18181818,11.7333333 Z M7.63636364,7.46666667 L9.81818182,7.46666667 L9.81818182,8 L7.63636364,8 L9.81818182,8 C9.81818182,10.0618632 8.10872369,11.7333333 6,11.7333333 L6,9.6 C6.90373873,9.6 7.63636364,8.88365564 7.63636364,8 L7.63636364,7.46666667 Z M2.18181818,4.26666667 C2.78431067,4.26666667 3.27272727,3.78910376 3.27272727,3.2 C3.27272727,2.61089624 2.78431067,2.13333333 2.18181818,2.13333333 C1.5793257,2.13333333 1.09090909,2.61089624 1.09090909,3.2 C1.09090909,3.78910376 1.5793257,4.26666667 2.18181818,4.26666667 Z M2.18181818,14.9333333 C2.78431067,14.9333333 3.27272727,14.4557704 3.27272727,13.8666667 C3.27272727,13.2775629 2.78431067,12.8 2.18181818,12.8 C1.5793257,12.8 1.09090909,13.2775629 1.09090909,13.8666667 C1.09090909,14.4557704 1.5793257,14.9333333 2.18181818,14.9333333 Z" sketch:type="MSShapeGroup"></path>
        </g>
    </g>
</svg>