<?xml version="1.0" encoding="utf-8"?>
<!-- Generator: Adobe Illustrator 17.1.0, SVG Export Plug-In . SVG Version: 6.00 Build 0)  -->
<!DOCTYPE svg PUBLIC "-//W3C//DTD SVG 1.1//EN" "http://www.w3.org/Graphics/SVG/1.1/DTD/svg11.dtd">
<svg version="1.1" id="Layer_1" xmlns="http://www.w3.org/2000/svg" xmlns:xlink="http://www.w3.org/1999/xlink" x="0px" y="0px"
	 viewBox="0 0 16 16" enable-background="new 0 0 16 16" xml:space="preserve">
<g>
	<path fill="#FFFFFF" d="M8.031,8.5C8.564,8.5,9,8.051,9,7.5v-6c0-0.549-0.436-1-0.969-1c-0.533,0-0.969,0.451-0.969,1v6
		C7.062,8.051,7.498,8.5,8.031,8.5z"/>
	<path fill="#FFFFFF" d="M11,2.184v2.342c1.207,0.914,2,2.348,2,3.975c0,2.758-2.242,5-5,5c-2.756,0-5-2.242-5-5
		c0-1.686,0.844-3.172,2.125-4.078V2.123C2.695,3.221,1,5.66,1,8.5c0,3.867,3.135,7,7,7c3.867,0,7-3.133,7-7
		C15,5.709,13.363,3.307,11,2.184z"/>
</g>
</svg>
