<?xml version="1.0" encoding="utf-8"?>
<!-- Generator: Adobe Illustrator 17.0.2, SVG Export Plug-In . SVG Version: 6.00 Build 0)  -->
<!DOCTYPE svg PUBLIC "-//W3C//DTD SVG 1.1//EN" "http://www.w3.org/Graphics/SVG/1.1/DTD/svg11.dtd">
<svg version="1.1" id="Layer_1" xmlns="http://www.w3.org/2000/svg" xmlns:xlink="http://www.w3.org/1999/xlink" x="0px" y="0px"
	 width="42px" height="30px" viewBox="0 0 42 30" enable-background="new 0 0 42 30" xml:space="preserve">
<g>
	<path fill="#ABE638" d="M21.847,21.318c4.138-2.068,6.935,0.729,6.935,0.729c4.261,5.356,9.251-0.122,11.197-1.338
		c1.947-1.217,1.097,2.434,1.097,2.434c-3.652,10.71-19.593,4.747-19.593,4.747s-0.853-0.486-1.704,0c0,0-15.942,5.963-19.593-4.747
		c0,0-0.851-3.65,1.095-2.434c1.947,1.216,6.938,6.694,11.196,1.338c0,0,2.8-2.797,6.936-0.729
		C19.412,21.318,20.264,22.413,21.847,21.318"/>
	<path fill="#676767" d="M5.65,15.297C5.337,15.61,5,15.845,4.637,16.001c-0.361,0.157-0.804,0.236-1.329,0.236
		c-0.94,0-1.724-0.317-2.349-0.951c-0.369-0.372-0.605-0.794-0.706-1.266c-0.101-0.471-0.152-1.071-0.152-1.799v-0.284v-0.284
		c0-0.727,0.051-1.329,0.152-1.802C0.354,9.376,0.59,8.954,0.959,8.583c0.318-0.318,0.665-0.555,1.045-0.711
		c0.379-0.158,0.812-0.235,1.305-0.235c0.525,0,0.97,0.079,1.336,0.238c0.366,0.159,0.7,0.39,1.006,0.696L4.268,9.952
		C4.114,9.79,3.969,9.672,3.837,9.598c-0.133-0.074-0.31-0.111-0.531-0.111c-0.352,0-0.621,0.118-0.808,0.354
		c-0.073,0.093-0.132,0.204-0.175,0.334c-0.046,0.13-0.08,0.327-0.105,0.592c-0.025,0.266-0.038,0.655-0.038,1.169
		c0,0.686,0.025,1.167,0.075,1.443c0.05,0.277,0.132,0.492,0.243,0.648c0.187,0.24,0.455,0.359,0.808,0.359
		c0.221,0,0.396-0.036,0.525-0.111c0.13-0.073,0.276-0.191,0.437-0.353L5.65,15.297z"/>
	<polygon fill="#676767" points="12.504,16.167 6.875,16.167 6.875,7.706 8.951,7.706 8.951,14.315 12.504,14.315 	"/>
	<polygon fill="#676767" points="19.473,16.167 13.722,16.167 13.722,7.706 19.473,7.706 19.473,9.558 15.799,9.558 15.799,10.973 
		18.94,10.973 18.94,12.825 15.799,12.825 15.799,14.315 19.473,14.315 	"/>
	<polygon fill="#676767" points="27.231,7.706 24.428,16.167 22.879,16.167 20.087,7.706 22.24,7.706 23.662,12.435 25.066,7.706 	
		"/>
	<polygon fill="#676767" points="33.842,16.167 28.09,16.167 28.09,7.706 33.842,7.706 33.842,9.558 30.167,9.558 30.167,10.973 
		33.308,10.973 33.308,12.825 30.167,12.825 30.167,14.315 33.842,14.315 	"/>
	<path fill="#676767" d="M42,16.167h-2.403l-1.5-3.15h-0.704v3.15h-2.078V7.706h3.351c0.606,0,1.127,0.126,1.558,0.38
		c0.433,0.253,0.763,0.587,0.99,1.002c0.225,0.414,0.339,0.861,0.339,1.34c0,0.53-0.134,0.983-0.402,1.36
		c-0.268,0.378-0.593,0.661-0.976,0.85L42,16.167z M39.476,10.431c0-0.151-0.037-0.292-0.107-0.422
		c-0.073-0.132-0.177-0.236-0.314-0.316c-0.137-0.079-0.298-0.118-0.481-0.118h-1.181v1.706h1.181c0.183,0,0.343-0.04,0.481-0.119
		c0.137-0.08,0.242-0.183,0.314-0.313C39.439,10.721,39.476,10.58,39.476,10.431"/>
	<polygon fill="#676767" points="4.41,5.704 3.553,5.704 3.553,3.231 1.256,3.231 1.256,5.704 0.39,5.704 0.39,0.046 1.256,0.046 
		1.256,2.46 3.553,2.46 3.553,0.046 4.41,0.046 	"/>
	<polygon fill="#676767" points="9.5,5.704 5.88,5.704 5.88,0.046 9.5,0.046 9.5,0.82 6.745,0.82 6.745,2.467 9.096,2.467 
		9.096,3.231 6.745,3.231 6.745,4.931 9.5,4.931 	"/>
	<path fill="#676767" d="M14.798,5.704h-1.001l-1.189-2.379h-1.072v2.379h-0.866V0.046h2.198c0.347,0,0.654,0.072,0.923,0.212
		c0.267,0.141,0.474,0.337,0.617,0.588c0.143,0.249,0.215,0.534,0.215,0.855c0,0.387-0.103,0.713-0.311,0.972
		c-0.209,0.261-0.479,0.438-0.813,0.53L14.798,5.704z M13.767,1.71c0-0.277-0.087-0.494-0.261-0.652
		c-0.175-0.159-0.409-0.239-0.701-0.239h-1.268v1.77h1.268c0.29,0,0.522-0.079,0.698-0.238C13.679,2.193,13.767,1.981,13.767,1.71"
		/>
	<polygon fill="#676767" points="20.87,5.704 20.006,5.704 20.006,1.921 18.708,4.679 18.072,4.679 16.739,1.921 16.739,5.704 
		15.875,5.704 15.875,0.046 16.739,0.046 18.39,3.566 20.006,0.046 20.87,0.046 	"/>
	<path fill="#676767" d="M26.503,5.704h-0.915l-0.386-1.137h-2.234L22.58,5.704h-0.915l2.076-5.657h0.69L26.503,5.704z
		 M24.961,3.837l-0.857-2.51l-0.879,2.51H24.961z"/>
	<polygon fill="#676767" points="31.564,5.704 30.775,5.704 28.164,1.722 28.164,5.704 27.299,5.704 27.299,0.046 28.091,0.046 
		30.707,4.019 30.707,0.046 31.564,0.046 	"/>
	<path fill="#676767" d="M36.905,2.873c0,0.447-0.008,0.789-0.025,1.025c-0.017,0.237-0.063,0.46-0.142,0.667
		c-0.076,0.209-0.201,0.402-0.371,0.58c-0.406,0.404-0.904,0.605-1.493,0.605c-0.59,0-1.084-0.201-1.487-0.603
		c-0.176-0.181-0.302-0.373-0.381-0.577c-0.075-0.204-0.124-0.426-0.143-0.665c-0.017-0.24-0.025-0.584-0.025-1.031
		c0-0.343,0.003-0.617,0.013-0.818c0.008-0.202,0.03-0.387,0.063-0.555c0.031-0.168,0.085-0.325,0.159-0.472
		c0.073-0.146,0.178-0.288,0.315-0.428c0.402-0.4,0.897-0.6,1.487-0.6c0.589,0,1.087,0.2,1.493,0.6
		c0.172,0.18,0.298,0.374,0.374,0.58c0.076,0.206,0.122,0.428,0.139,0.665C36.897,2.083,36.905,2.427,36.905,2.873 M36.047,2.875
		c0-0.562-0.02-0.959-0.063-1.188c-0.042-0.23-0.133-0.418-0.27-0.566c-0.099-0.105-0.223-0.19-0.375-0.253
		c-0.152-0.062-0.308-0.095-0.466-0.095c-0.165,0-0.32,0.033-0.472,0.095c-0.151,0.064-0.276,0.148-0.375,0.253
		c-0.136,0.152-0.226,0.342-0.269,0.57c-0.042,0.227-0.063,0.622-0.063,1.184c0,0.3,0.004,0.539,0.013,0.719
		c0.009,0.179,0.027,0.336,0.052,0.471c0.026,0.134,0.057,0.237,0.094,0.313c0.036,0.075,0.095,0.159,0.173,0.252
		c0.104,0.109,0.23,0.194,0.379,0.254c0.15,0.062,0.304,0.095,0.468,0.095c0.34,0,0.622-0.117,0.841-0.349
		c0.093-0.1,0.163-0.216,0.211-0.345c0.047-0.13,0.08-0.304,0.098-0.526C36.039,3.536,36.047,3.241,36.047,2.875"/>
	<path fill="#676767" d="M41.713,4.089c0,0.251-0.049,0.481-0.15,0.69c-0.097,0.208-0.238,0.385-0.422,0.531
		c-0.186,0.145-0.401,0.257-0.648,0.33c-0.246,0.073-0.517,0.11-0.814,0.11c-0.432,0-0.807-0.058-1.126-0.173
		C38.233,5.461,37.94,5.269,37.674,5l0.574-0.565c0.128,0.129,0.267,0.235,0.417,0.318c0.152,0.082,0.313,0.142,0.484,0.175
		c0.17,0.033,0.353,0.05,0.546,0.05c0.366,0,0.651-0.076,0.857-0.228c0.208-0.151,0.311-0.366,0.311-0.639
		c0-0.255-0.075-0.45-0.226-0.585c-0.067-0.067-0.144-0.118-0.234-0.152c-0.088-0.036-0.216-0.064-0.382-0.088l-0.667-0.093
		c-0.459-0.065-0.818-0.215-1.075-0.453c-0.274-0.257-0.411-0.617-0.411-1.079c0-0.329,0.076-0.619,0.229-0.869
		c0.152-0.25,0.371-0.444,0.655-0.583C39.037,0.069,39.372,0,39.757,0c0.38,0,0.708,0.052,0.986,0.154
		c0.276,0.103,0.534,0.266,0.772,0.49l-0.551,0.543c-0.113-0.111-0.236-0.198-0.365-0.261c-0.129-0.063-0.264-0.109-0.403-0.136
		c-0.14-0.027-0.293-0.04-0.461-0.04c-0.215,0-0.4,0.037-0.556,0.112c-0.155,0.075-0.273,0.18-0.352,0.311
		C38.741,1.306,38.7,1.458,38.7,1.628c0,0.224,0.073,0.399,0.215,0.527c0.07,0.059,0.163,0.113,0.277,0.161
		c0.113,0.046,0.232,0.08,0.36,0.099l0.644,0.098c0.257,0.038,0.47,0.09,0.634,0.156c0.164,0.066,0.305,0.153,0.421,0.262
		C41.558,3.198,41.713,3.585,41.713,4.089"/>
</g>
</svg>
