<?xml version="1.0" encoding="utf-8"?>
<!-- Generator: Adobe Illustrator 17.1.0, SVG Export Plug-In . SVG Version: 6.00 Build 0)  -->
<!DOCTYPE svg PUBLIC "-//W3C//DTD SVG 1.1//EN" "http://www.w3.org/Graphics/SVG/1.1/DTD/svg11.dtd">
<svg version="1.1" id="Layer_1" xmlns="http://www.w3.org/2000/svg" xmlns:xlink="http://www.w3.org/1999/xlink" x="0px" y="0px"
	 viewBox="0 0 70 49" enable-background="new 0 0 70 49" xml:space="preserve">
<g>
	<path fill="#8BE60A" d="M36.367,35.069c6.68-3.339,11.196,1.177,11.196,1.177c6.882,8.648,14.938-0.198,18.08-2.161
		c3.144-1.965,1.771,3.928,1.771,3.928c-5.897,17.293-31.636,7.666-31.636,7.666s-1.377-0.784-2.751,0
		c0,0-25.741,9.628-31.636-7.666c0,0-1.372-5.894,1.767-3.928c3.144,1.964,11.2,10.81,18.077,2.161c0,0,4.521-4.516,11.199-1.177
		C32.435,35.069,33.811,36.838,36.367,35.069"/>
	<path fill="#676767" d="M10.215,25.347c-0.508,0.507-1.05,0.885-1.635,1.136c-0.583,0.256-1.297,0.379-2.145,0.379
		c-1.518,0-2.783-0.511-3.795-1.533c-0.597-0.603-0.977-1.282-1.138-2.046c-0.164-0.758-0.248-1.729-0.248-2.903v-0.46v-0.457
		c0-1.174,0.084-2.147,0.248-2.911c0.161-0.765,0.543-1.447,1.138-2.045c0.513-0.513,1.076-0.896,1.688-1.149
		c0.611-0.255,1.313-0.378,2.107-0.378c0.848,0,1.567,0.127,2.156,0.384c0.591,0.257,1.129,0.63,1.624,1.125l-2.232,2.23
		c-0.247-0.262-0.483-0.453-0.697-0.572c-0.212-0.12-0.498-0.179-0.857-0.179c-0.57,0-1.001,0.19-1.302,0.572
		c-0.117,0.15-0.213,0.329-0.284,0.539c-0.075,0.209-0.128,0.529-0.17,0.956c-0.041,0.429-0.062,1.057-0.062,1.885
		c0,1.109,0.039,1.883,0.124,2.33c0.08,0.447,0.211,0.795,0.391,1.046c0.302,0.387,0.732,0.579,1.302,0.579
		c0.359,0,0.639-0.058,0.847-0.178c0.211-0.117,0.449-0.308,0.708-0.571L10.215,25.347z"/>
	<polygon fill="#676767" points="21.282,26.753 12.192,26.753 12.192,13.092 15.547,13.092 15.547,23.762 21.282,23.762 	"/>
	<polygon fill="#676767" points="32.533,26.753 23.247,26.753 23.247,13.092 32.533,13.092 32.533,16.081 26.602,16.081 
		26.602,18.364 31.673,18.364 31.673,21.357 26.602,21.357 26.602,23.762 32.533,23.762 	"/>
	<polygon fill="#676767" points="45.059,13.092 40.534,26.753 38.033,26.753 33.524,13.092 37.001,13.092 39.299,20.727 
		41.564,13.092 	"/>
	<polygon fill="#676767" points="55.736,26.753 46.448,26.753 46.448,13.092 55.736,13.092 55.736,16.081 49.802,16.081 
		49.802,18.364 54.873,18.364 54.873,21.357 49.802,21.357 49.802,23.762 55.736,23.762 	"/>
	<path fill="#676767" d="M68.908,26.753h-3.88l-2.424-5.086h-1.137v5.086h-3.354v-13.66h5.411c0.979,0,1.82,0.203,2.517,0.612
		c0.699,0.41,1.233,0.949,1.599,1.618c0.365,0.668,0.547,1.39,0.547,2.164c0,0.857-0.215,1.587-0.65,2.196
		c-0.434,0.611-0.959,1.067-1.578,1.372L68.908,26.753z M64.833,17.49c0-0.244-0.06-0.47-0.173-0.681
		c-0.117-0.212-0.288-0.381-0.508-0.509c-0.222-0.129-0.482-0.191-0.776-0.191h-1.908v2.755h1.908c0.295,0,0.554-0.065,0.776-0.193
		c0.22-0.128,0.39-0.296,0.508-0.504C64.773,17.959,64.833,17.732,64.833,17.49"/>
	<polygon fill="#676767" points="8.212,9.858 6.828,9.858 6.828,5.865 3.119,5.865 3.119,9.858 1.722,9.858 1.722,0.723 
		3.119,0.723 3.119,4.62 6.828,4.62 6.828,0.723 8.212,0.723 	"/>
	<polygon fill="#676767" points="16.43,9.858 10.586,9.858 10.586,0.723 16.43,0.723 16.43,1.972 11.984,1.972 11.984,4.632 
		15.779,4.632 15.779,5.865 11.984,5.865 11.984,8.611 16.43,8.611 	"/>
	<path fill="#676767" d="M24.985,9.858H23.37l-1.919-3.84H19.72v3.84h-1.397V0.723h3.55c0.559,0,1.054,0.116,1.488,0.342
		c0.431,0.226,0.766,0.543,0.998,0.947c0.231,0.404,0.345,0.865,0.345,1.383c0,0.624-0.167,1.151-0.502,1.57
		c-0.335,0.422-0.773,0.707-1.314,0.856L24.985,9.858z M23.321,3.409c0-0.447-0.141-0.796-0.421-1.053
		c-0.283-0.258-0.661-0.387-1.133-0.387H19.72v2.857h2.047c0.469,0,0.845-0.127,1.127-0.384C23.18,4.19,23.321,3.847,23.321,3.409"
		/>
	<polygon fill="#676767" points="34.79,9.858 33.394,9.858 33.394,3.749 31.298,8.205 30.271,8.205 28.122,3.749 28.122,9.858 
		26.724,9.858 26.724,0.723 28.122,0.723 30.787,6.406 33.394,0.723 34.79,0.723 	"/>
	<path fill="#676767" d="M43.886,9.858H42.41l-0.626-1.835h-3.608L37.55,9.858h-1.476l3.35-9.134h1.115L43.886,9.858z M41.394,6.844
		L40.01,2.79l-1.418,4.054H41.394z"/>
	<polygon fill="#676767" points="52.057,9.858 50.784,9.858 46.568,3.428 46.568,9.858 45.171,9.858 45.171,0.723 46.45,0.723 
		50.673,7.139 50.673,0.723 52.057,0.723 	"/>
	<path fill="#676767" d="M60.679,5.287c0,0.722-0.011,1.275-0.039,1.655c-0.028,0.384-0.102,0.744-0.229,1.077
		c-0.124,0.337-0.326,0.651-0.601,0.938c-0.656,0.652-1.462,0.978-2.412,0.978c-0.953,0-1.75-0.324-2.399-0.975
		c-0.285-0.29-0.488-0.602-0.617-0.93c-0.12-0.331-0.2-0.689-0.231-1.075c-0.028-0.386-0.041-0.942-0.041-1.664
		c0-0.554,0.006-0.997,0.023-1.322c0.011-0.324,0.046-0.624,0.099-0.896c0.051-0.269,0.138-0.524,0.257-0.761
		c0.118-0.235,0.288-0.466,0.511-0.69c0.649-0.647,1.446-0.97,2.399-0.97c0.949,0,1.756,0.323,2.412,0.97
		c0.277,0.291,0.48,0.603,0.604,0.936c0.122,0.332,0.197,0.69,0.225,1.075C60.669,4.013,60.679,4.569,60.679,5.287 M59.296,5.29
		c0-0.909-0.031-1.547-0.1-1.918C59.128,3,58.981,2.698,58.758,2.458c-0.157-0.17-0.36-0.307-0.604-0.41
		c-0.245-0.1-0.496-0.154-0.754-0.154c-0.263,0-0.516,0.054-0.762,0.154c-0.245,0.102-0.446,0.24-0.605,0.409
		c-0.221,0.246-0.366,0.552-0.435,0.921c-0.068,0.366-0.1,1.002-0.1,1.912c0,0.484,0.007,0.87,0.02,1.162
		c0.013,0.287,0.045,0.542,0.086,0.76c0.042,0.215,0.09,0.384,0.15,0.506c0.058,0.121,0.153,0.256,0.28,0.406
		c0.166,0.176,0.371,0.314,0.609,0.412c0.245,0.099,0.493,0.152,0.758,0.152c0.552,0,1.004-0.189,1.358-0.565
		c0.15-0.161,0.263-0.348,0.34-0.556c0.078-0.21,0.13-0.492,0.159-0.85C59.284,6.358,59.296,5.882,59.296,5.29"/>
	<path fill="#676767" d="M68.444,7.251c0,0.405-0.079,0.777-0.241,1.112c-0.154,0.337-0.385,0.624-0.681,0.859
		c-0.3,0.234-0.649,0.414-1.047,0.531c-0.396,0.119-0.834,0.179-1.314,0.179c-0.698,0-1.302-0.093-1.819-0.278
		c-0.515-0.188-0.989-0.497-1.419-0.931l0.927-0.912c0.204,0.205,0.43,0.377,0.674,0.512c0.243,0.135,0.504,0.23,0.779,0.283
		c0.275,0.054,0.569,0.08,0.882,0.08c0.591,0,1.052-0.122,1.384-0.369c0.336-0.244,0.505-0.591,0.505-1.031
		c0-0.412-0.122-0.728-0.368-0.945C66.6,6.233,66.474,6.151,66.33,6.095c-0.143-0.059-0.35-0.103-0.618-0.144l-1.079-0.149
		c-0.74-0.104-1.32-0.347-1.735-0.731c-0.441-0.415-0.662-0.997-0.662-1.743c0-0.532,0.124-0.998,0.369-1.403
		c0.247-0.404,0.601-0.717,1.059-0.941c0.461-0.224,1.002-0.336,1.625-0.336c0.613,0,1.142,0.085,1.59,0.251
		c0.445,0.166,0.863,0.428,1.246,0.79l-0.891,0.877c-0.182-0.179-0.381-0.32-0.589-0.422c-0.205-0.101-0.425-0.177-0.65-0.22
		c-0.227-0.044-0.475-0.066-0.745-0.066c-0.347,0-0.647,0.061-0.898,0.181c-0.25,0.123-0.44,0.29-0.569,0.502
		c-0.135,0.216-0.202,0.462-0.202,0.737c0,0.363,0.116,0.644,0.346,0.85c0.114,0.093,0.263,0.181,0.446,0.258
		c0.183,0.075,0.376,0.13,0.582,0.159l1.041,0.159c0.414,0.061,0.759,0.144,1.024,0.251c0.265,0.106,0.492,0.248,0.679,0.421
		C68.196,5.811,68.444,6.436,68.444,7.251"/>
</g>
</svg>
