<?xml version="1.0" encoding="utf-8"?>
<!-- Generator: Adobe Illustrator 17.0.2, SVG Export Plug-In . SVG Version: 6.00 Build 0)  -->
<!DOCTYPE svg PUBLIC "-//W3C//DTD SVG 1.1//EN" "http://www.w3.org/Graphics/SVG/1.1/DTD/svg11.dtd">
<svg version="1.1" id="Layer_1" xmlns="http://www.w3.org/2000/svg" xmlns:xlink="http://www.w3.org/1999/xlink" x="0px" y="0px"
	 width="77px" height="25px" viewBox="0 0 77 25" enable-background="new 0 0 77 25" xml:space="preserve">
<g>
	<path fill="#FFFFFF" d="M1.671,16.888v7.91H0.014V12.611c0-3.46,2.719-6.205,6.18-6.205c3.485,0,6.23,2.744,6.23,6.18
		c0,3.51-2.892,6.229-6.23,6.229C4.39,18.816,2.783,18.074,1.671,16.888z M1.671,12.611c0,2.521,2.052,4.548,4.548,4.548
		c2.522,0,4.548-2.027,4.548-4.548c0-2.497-2.027-4.548-4.548-4.548C3.722,8.063,1.671,10.115,1.671,12.611z"/>
	<path fill="#FFFFFF" d="M14.4,6.58h1.656v1.928c1.112-1.211,2.719-1.953,4.523-1.953v1.656c-2.472,0-4.425,1.928-4.523,4.326v6.279
		H14.4V6.58z"/>
	<path fill="#FFFFFF" d="M33.508,12.71c0,3.436-2.744,6.18-6.23,6.18c-3.46,0-6.18-2.744-6.18-6.18c0-3.486,2.67-6.23,6.18-6.23
		C30.615,6.481,33.508,9.2,33.508,12.71z M31.851,12.686c0-2.521-2.027-4.548-4.548-4.548c-2.497,0-4.548,2.027-4.548,4.548
		c0,2.497,2.052,4.548,4.548,4.548C29.824,17.234,31.851,15.182,31.851,12.686z"/>
	<path fill="#ABE638" d="M35.484,0.326h1.656V8.31c1.112-1.187,2.694-1.928,4.523-1.928c3.337,0,6.229,2.719,6.229,6.229v6.205
		h-1.656v-6.205c0-2.521-2.052-4.573-4.548-4.573c-2.472,0-4.45,1.953-4.548,4.4v6.377h-1.656V0.326z"/>
	<path fill="#ABE638" d="M62.328,18.816h-1.656v-1.755c-1.112,1.186-2.719,1.928-4.524,1.928c-3.337,0-6.229-2.719-6.229-6.229
		V6.555h1.656v6.205c0,2.521,2.052,4.573,4.548,4.573c2.521,0,4.548-2.052,4.548-4.573V6.555h1.656V18.816z"/>
	<path fill="#ABE638" d="M76.986,12.71c0,3.436-2.744,6.18-6.23,6.18c-3.46,0-6.18-2.744-6.18-6.18v-0.025V0.202h1.656v8.207
		c1.112-1.187,2.694-1.928,4.523-1.928C74.093,6.481,76.986,9.2,76.986,12.71z M75.329,12.686c0-2.521-2.027-4.548-4.548-4.548
		c-2.497,0-4.548,2.027-4.548,4.548c0,2.497,2.052,4.548,4.548,4.548C73.302,17.234,75.329,15.182,75.329,12.686z"/>
</g>
</svg>
