<?xml version="1.0" encoding="utf-8"?>
<!-- Generator: Adobe Illustrator 17.1.0, SVG Export Plug-In . SVG Version: 6.00 Build 0)  -->
<!DOCTYPE svg PUBLIC "-//W3C//DTD SVG 1.1//EN" "http://www.w3.org/Graphics/SVG/1.1/DTD/svg11.dtd">
<svg version="1.1" id="Layer_1" xmlns="http://www.w3.org/2000/svg" xmlns:xlink="http://www.w3.org/1999/xlink" x="0px" y="0px"
	 viewBox="0 0 70 49" enable-background="new 0 0 70 49" xml:space="preserve">
<g>
	<path fill="#8BE60A" d="M36.391,35.254c6.797-3.397,11.392,1.198,11.392,1.198c7.002,8.799,15.199-0.201,18.396-2.199
		c3.199-1.999,1.802,3.997,1.802,3.997c-6,17.595-32.189,7.8-32.189,7.8s-1.401-0.798-2.799,0c0,0-26.191,9.796-32.189-7.8
		c0,0-1.396-5.997,1.798-3.997c3.199,1.998,11.396,10.999,18.393,2.199c0,0,4.6-4.595,11.395-1.198
		C32.39,35.254,33.79,37.053,36.391,35.254"/>
	<path fill="#676767" d="M9.782,25.362c-0.517,0.516-1.068,0.9-1.664,1.156c-0.593,0.26-1.32,0.386-2.182,0.386
		c-1.545,0-2.832-0.52-3.861-1.56c-0.607-0.614-0.994-1.304-1.158-2.082c-0.167-0.771-0.252-1.759-0.252-2.954V19.84v-0.465
		c0-1.194,0.085-2.184,0.252-2.962c0.164-0.778,0.552-1.472,1.158-2.081c0.522-0.522,1.095-0.912,1.717-1.169
		c0.622-0.259,1.336-0.385,2.144-0.385c0.863,0,1.594,0.129,2.194,0.391c0.601,0.261,1.149,0.641,1.652,1.145l-2.271,2.269
		c-0.251-0.267-0.491-0.461-0.709-0.582c-0.216-0.122-0.507-0.182-0.872-0.182c-0.58,0-1.018,0.193-1.325,0.582
		c-0.119,0.153-0.217,0.335-0.289,0.548c-0.076,0.213-0.13,0.538-0.173,0.973C4.101,18.358,4.08,18.997,4.08,19.84
		c0,1.128,0.04,1.916,0.126,2.371c0.081,0.455,0.215,0.809,0.398,1.064c0.307,0.394,0.745,0.589,1.325,0.589
		c0.365,0,0.65-0.059,0.862-0.181c0.215-0.119,0.457-0.313,0.72-0.581L9.782,25.362z"/>
	<polygon fill="#676767" points="21.043,26.792 11.794,26.792 11.794,12.893 15.207,12.893 15.207,23.749 21.043,23.749 	"/>
	<polygon fill="#676767" points="32.49,26.792 23.042,26.792 23.042,12.893 32.49,12.893 32.49,15.934 26.455,15.934 26.455,18.257 
		31.615,18.257 31.615,21.302 26.455,21.302 26.455,23.749 32.49,23.749 	"/>
	<polygon fill="#676767" points="45.235,12.893 40.631,26.792 38.086,26.792 33.498,12.893 37.036,12.893 39.374,20.661 
		41.679,12.893 	"/>
	<polygon fill="#676767" points="56.098,26.792 46.648,26.792 46.648,12.893 56.098,12.893 56.098,15.934 50.061,15.934 
		50.061,18.257 55.22,18.257 55.22,21.302 50.061,21.302 50.061,23.749 56.098,23.749 	"/>
	<path fill="#676767" d="M69.5,26.792h-3.948l-2.466-5.175h-1.157v5.175h-3.413V12.893h5.506c0.996,0,1.852,0.207,2.561,0.623
		c0.711,0.417,1.255,0.966,1.627,1.646c0.371,0.68,0.557,1.414,0.557,2.202c0,0.872-0.219,1.615-0.661,2.234
		c-0.442,0.622-0.976,1.086-1.606,1.396L69.5,26.792z M65.354,17.368c0-0.248-0.061-0.478-0.176-0.693
		c-0.119-0.216-0.293-0.388-0.517-0.518c-0.226-0.131-0.49-0.194-0.79-0.194h-1.941v2.803h1.941c0.3,0,0.564-0.066,0.79-0.196
		c0.224-0.13,0.397-0.301,0.517-0.513C65.293,17.845,65.354,17.614,65.354,17.368"/>
	<polygon fill="#676767" points="7.744,9.602 6.336,9.602 6.336,5.54 2.562,5.54 2.562,9.602 1.141,9.602 1.141,0.308 2.562,0.308 
		2.562,4.273 6.336,4.273 6.336,0.308 7.744,0.308 	"/>
	<polygon fill="#676767" points="16.106,9.602 10.16,9.602 10.16,0.308 16.106,0.308 16.106,1.579 11.582,1.579 11.582,4.285 
		15.443,4.285 15.443,5.54 11.582,5.54 11.582,8.333 16.106,8.333 	"/>
	<path fill="#676767" d="M24.81,9.602h-1.643l-1.953-3.907h-1.761v3.907h-1.421V0.308h3.612c0.569,0,1.072,0.118,1.514,0.348
		c0.439,0.23,0.779,0.552,1.015,0.964c0.235,0.411,0.351,0.88,0.351,1.407c0,0.635-0.17,1.171-0.511,1.597
		c-0.341,0.429-0.787,0.719-1.337,0.871L24.81,9.602z M23.117,3.041c0-0.455-0.143-0.81-0.428-1.071
		c-0.288-0.263-0.673-0.394-1.153-0.394h-2.083v2.907h2.083c0.477,0,0.86-0.129,1.147-0.391C22.974,3.835,23.117,3.486,23.117,3.041
		"/>
	<polygon fill="#676767" points="34.786,9.602 33.366,9.602 33.366,3.387 31.234,7.92 30.189,7.92 28.002,3.387 28.002,9.602 
		26.58,9.602 26.58,0.308 28.002,0.308 30.714,6.09 33.366,0.308 34.786,0.308 	"/>
	<path fill="#676767" d="M44.041,9.602H42.54l-0.637-1.867h-3.671l-0.637,1.867h-1.502l3.409-9.294h1.134L44.041,9.602z
		 M41.506,6.536l-1.408-4.125l-1.443,4.125H41.506z"/>
	<polygon fill="#676767" points="52.355,9.602 51.06,9.602 46.77,3.06 46.77,9.602 45.349,9.602 45.349,0.308 46.65,0.308 
		50.947,6.836 50.947,0.308 52.355,0.308 	"/>
	<path fill="#676767" d="M61.128,4.951c0,0.735-0.011,1.297-0.04,1.684c-0.028,0.391-0.104,0.757-0.233,1.096
		c-0.126,0.343-0.332,0.662-0.611,0.954C59.577,9.348,58.756,9.68,57.79,9.68c-0.97,0-1.781-0.33-2.441-0.992
		c-0.29-0.295-0.497-0.613-0.628-0.946c-0.122-0.337-0.203-0.701-0.235-1.094c-0.028-0.393-0.042-0.958-0.042-1.693
		c0-0.564,0.006-1.014,0.023-1.345c0.011-0.33,0.047-0.635,0.101-0.912c0.052-0.274,0.14-0.533,0.261-0.774
		c0.12-0.239,0.293-0.474,0.52-0.702c0.66-0.658,1.471-0.987,2.441-0.987c0.966,0,1.787,0.329,2.454,0.987
		c0.282,0.296,0.488,0.614,0.615,0.952c0.124,0.338,0.2,0.702,0.229,1.094C61.117,3.655,61.128,4.221,61.128,4.951 M59.72,4.954
		c0-0.925-0.032-1.574-0.102-1.951c-0.068-0.379-0.218-0.686-0.445-0.93c-0.16-0.173-0.366-0.312-0.615-0.417
		c-0.249-0.102-0.505-0.157-0.767-0.157c-0.268,0-0.525,0.055-0.775,0.157C56.767,1.76,56.562,1.9,56.4,2.072
		c-0.225,0.25-0.372,0.562-0.443,0.937c-0.069,0.372-0.102,1.02-0.102,1.945c0,0.492,0.007,0.885,0.02,1.182
		c0.013,0.292,0.046,0.551,0.087,0.773c0.043,0.219,0.092,0.391,0.153,0.515c0.059,0.123,0.156,0.26,0.285,0.413
		c0.169,0.179,0.377,0.319,0.62,0.419c0.249,0.101,0.502,0.155,0.771,0.155c0.562,0,1.022-0.192,1.382-0.575
		c0.153-0.164,0.268-0.354,0.346-0.566c0.079-0.214,0.132-0.501,0.162-0.865C59.708,6.041,59.72,5.557,59.72,4.954"/>
	<path fill="#676767" d="M69.028,6.95c0,0.412-0.08,0.791-0.245,1.131c-0.157,0.343-0.392,0.635-0.693,0.874
		c-0.305,0.238-0.66,0.421-1.065,0.54c-0.403,0.121-0.849,0.182-1.337,0.182c-0.71,0-1.325-0.095-1.851-0.283
		c-0.524-0.191-1.006-0.506-1.444-0.947l0.943-0.928c0.208,0.209,0.437,0.384,0.686,0.521c0.247,0.137,0.513,0.234,0.793,0.288
		c0.28,0.055,0.579,0.081,0.897,0.081c0.601,0,1.07-0.124,1.408-0.375c0.342-0.248,0.514-0.601,0.514-1.049
		c0-0.419-0.124-0.741-0.374-0.961c-0.108-0.11-0.236-0.194-0.383-0.25c-0.146-0.06-0.356-0.105-0.629-0.147L65.15,5.475
		c-0.753-0.106-1.343-0.353-1.765-0.744c-0.449-0.422-0.674-1.014-0.674-1.773c0-0.541,0.126-1.015,0.375-1.428
		c0.251-0.411,0.611-0.73,1.077-0.957c0.469-0.228,1.02-0.342,1.653-0.342c0.624,0,1.162,0.086,1.618,0.255
		c0.453,0.169,0.878,0.435,1.268,0.804l-0.907,0.892c-0.185-0.182-0.388-0.326-0.599-0.429c-0.209-0.103-0.432-0.18-0.661-0.224
		c-0.231-0.045-0.483-0.067-0.758-0.067c-0.353,0-0.658,0.062-0.914,0.184c-0.254,0.125-0.448,0.295-0.579,0.511
		c-0.137,0.22-0.206,0.47-0.206,0.75c0,0.369,0.118,0.655,0.352,0.865c0.116,0.095,0.268,0.184,0.454,0.263
		c0.186,0.076,0.383,0.132,0.592,0.162l1.059,0.162c0.421,0.062,0.772,0.147,1.042,0.255c0.27,0.108,0.501,0.252,0.691,0.428
		C68.776,5.485,69.028,6.12,69.028,6.95"/>
</g>
</svg>
